<svg width="139" height="39" viewBox="0 0 139 39" fill="none" xmlns="http://www.w3.org/2000/svg">
<g clip-path="url(#clip0_58_2527)">
<path d="M22.6918 5.80904C18.8244 7.62658 14.8021 10.6142 15.1179 15.2828C15.1537 16.3817 15.3443 17.5696 15.5112 18.8348C20.6896 16.055 26.5473 14.4572 32.2799 14.2672C27.0598 16.2273 21.9529 18.1458 17.0605 20.7236C16.6255 20.9493 16.2024 21.181 15.7734 21.4126C16.1667 30.4587 8.62258 35.7688 0.357422 38.6199H38.1376V1.20578C32.8221 2.27492 27.6199 3.56384 22.6918 5.80904Z" fill="white"/>
<path d="M12.2458 23.4558C9.15305 25.3625 6.20334 27.4711 3.30129 29.7757C5.60148 26.2416 8.67037 23.2361 12.1981 20.8364C12.1862 20.7236 12.1802 20.6107 12.1624 20.4919C11.6618 17.142 10.8633 12.9604 12.8596 9.69953C15.9404 4.45478 22.6323 1.84726 29.6997 0.605865H0V36.7607C6.06628 33.7553 11.6439 29.6094 12.2458 23.4558Z" fill="white"/>
<path d="M50.5621 18.8526H45.8843V0.72464H59.006V3.3678C56.5926 1.32455 54.2805 1.08696 50.5621 1.08696V8.74916C50.5621 9.42034 50.9792 9.65793 51.5513 9.68169C52.7967 9.70545 54.7453 8.74916 55.8895 8.77292C56.8489 8.79668 57.3673 9.52132 57.3971 10.4301C57.0336 10.0143 56.1993 9.9668 55.9431 9.9668C54.7453 9.9668 53.8932 11.1072 52.5643 11.0835C51.6049 11.0835 51.0567 10.4895 50.8481 10.2044C50.6634 9.91928 50.5621 9.94304 50.5621 10.4123V18.8526Z" fill="white"/>
<path d="M65.6562 5.61896C68.6715 5.61896 70.5665 6.45051 70.6201 8.33934C70.6737 10.5133 68.2305 10.0975 65.9423 10.929C63.8387 11.6774 62.4324 13.2574 63.368 14.5522C63.6778 14.9918 64.095 15.1759 64.5657 15.1759C65.2391 15.1759 65.9661 14.7601 66.4905 14.0652C67.4499 12.7703 67.3486 10.9825 69.1423 10.8043C70.4413 10.6736 70.8823 11.6062 71.3769 13.1624L73.1944 18.8585H68.8026L67.3486 14.2256C67.2711 13.9939 67.1937 13.8395 67.1162 13.8395C67.0387 13.8395 66.9613 13.9939 66.9076 14.38C66.7229 15.8293 66.9613 19.1436 63.3978 19.1436C60.7996 19.1436 59.8104 17.4092 59.8104 15.8827C59.7866 13.8632 61.4968 12.7228 63.0581 11.9982C65.9959 10.6499 66.4845 9.20059 66.0972 7.80476C65.7099 6.45645 64.6968 5.83873 63.7613 6.12383C62.1762 6.64058 62.8495 9.15307 63.5289 9.97869C62.8555 10.7033 62.0212 11.0657 61.2942 11.0657C60.2276 11.0657 59.3218 10.341 59.292 8.9927C59.2145 5.98722 63.6838 5.6249 65.6562 5.6249V5.61896Z" fill="white"/>
<path d="M78.8556 6.0585C78.0214 6.0585 77.6877 6.42082 77.7115 6.86036C77.7353 8.13145 80.4884 9.01052 82.8541 10.2519C85.631 11.7012 86.364 12.8654 86.364 14.6532C86.3402 19.0783 81.9245 19.209 80.6255 19.209C77.8962 19.209 74.2612 18.6388 74.2612 15.8174C74.2612 13.489 76.7581 13.0198 77.0143 12.9664C77.8724 12.8119 77.199 12.4199 76.4422 11.8259C75.3279 10.9706 74.6247 10.0678 74.6247 8.79669C74.6247 6.10602 77.8962 5.63678 79.6899 5.63678C82.002 5.63678 84.6776 6.41488 86.2389 7.88792L84.0579 9.77674C82.8124 7.9889 80.7327 6.04662 78.8616 6.04662L78.8556 6.0585ZM77.7413 12.5862C77.9499 12.8179 77.926 12.9723 77.8426 13.0792C77.634 13.3406 76.9309 13.1802 76.9607 13.495C77.0143 14.3503 82.6515 17.1182 84.7551 17.1182C85.2497 17.1182 85.5357 16.9638 85.5357 16.6252C85.5357 15.3838 81.7934 14.6829 78.2121 12.7703C77.64 12.4615 77.6638 12.509 77.7473 12.5862H77.7413Z" fill="white"/>
<path d="M88.4736 0.72464H92.633V8.85607C93.074 7.04447 94.0632 5.61894 95.6483 5.61894C96.9712 5.61894 98.1451 6.65245 99.182 9.73515L102.245 18.8526H97.8531L95.1239 10.7211C94.6829 9.37283 94.1883 8.49375 93.5924 8.49375C92.8416 8.49375 92.633 9.78861 92.633 11.8616V18.8526H88.4736V0.72464Z" fill="white"/>
<path d="M105.826 0C107.256 0 108.192 0.932531 108.192 2.32836C108.192 3.72419 107.256 4.68641 105.826 4.68641C104.396 4.68641 103.49 3.75388 103.49 2.32836C103.49 0.902833 104.426 0 105.826 0ZM103.746 5.90405H107.906V18.8526H103.746V5.90405Z" fill="white"/>
<path d="M116.636 19.2149C112.685 19.2149 110.117 16.4945 110.117 12.408C110.117 8.3215 112.691 5.62488 116.636 5.62488C120.581 5.62488 123.155 8.31556 123.155 12.408C123.155 16.5004 120.581 19.2149 116.636 19.2149ZM114.455 6.29606C112.894 6.75936 113.442 9.97273 114.508 13.0554C115.545 16.0312 117.16 19.0129 118.716 18.5199C120.223 18.0804 119.86 14.9205 118.793 11.814C117.78 8.88577 116.064 5.83277 114.455 6.29606Z" fill="white"/>
<path d="M125.526 5.90406H129.686V8.85609C130.127 7.04448 131.116 5.61896 132.701 5.61896C134.024 5.61896 135.198 6.65246 136.235 9.73516L139.298 18.8526H134.906L132.177 10.7211C131.736 9.37284 131.241 8.49377 130.645 8.49377C129.894 8.49377 129.686 9.78862 129.686 11.8616V18.8526H125.526V5.90406Z" fill="white"/>
<path d="M50.5621 38.6377H45.8843V20.5097H59.006V23.1529C56.5926 21.1096 54.2805 20.8721 50.5621 20.8721V28.5343C50.5621 29.2054 50.9792 29.443 51.5513 29.4668C52.7967 29.4905 54.7453 28.5343 55.8895 28.558C56.8489 28.5818 57.3673 29.3064 57.3971 30.2152C57.0336 29.7994 56.1993 29.7519 55.9431 29.7519C54.7453 29.7519 53.8932 30.8923 52.5643 30.8686C51.6049 30.8686 51.0567 30.2746 50.8481 29.9895C50.6634 29.7044 50.5621 29.7281 50.5621 30.1974V38.6377Z" fill="white"/>
<path d="M60.8296 20.5157H64.989V38.6436H60.8296V20.5157Z" fill="white"/>
<path d="M73.8678 39C69.917 39 67.3486 36.2796 67.3486 32.1931C67.3486 28.1066 69.9229 25.41 73.8678 25.41C77.8127 25.41 80.387 28.1007 80.387 32.1931C80.387 36.2855 77.8127 39 73.8678 39ZM71.6868 26.0812C70.1255 26.5445 70.6738 29.7578 71.7404 32.8405C72.7773 35.8163 74.3922 38.798 75.9475 38.305C77.4551 37.8655 77.0916 34.7056 76.025 31.5991C75.0119 28.6709 73.2957 25.6179 71.6868 26.0812Z" fill="white"/>
<path d="M80.6792 25.6892H85.0948L89.147 36.6657L90.4222 33.2504L87.6453 25.6892H92.0371L96.6851 38.2457C98.6337 34.6224 95.6185 30.9458 95.4397 28.2789C95.3384 26.4673 96.3514 25.3031 98.014 25.3031C99.8613 25.3031 101.208 26.7761 101.208 29.449C101.208 33.387 98.2702 36.8795 96.9235 38.6436H92.4006L90.6606 33.9037L89.8561 36.0539C89.5701 36.832 89.4688 37.5804 89.8561 38.6436H85.4405L80.6852 25.6951L80.6792 25.6892ZM97.4062 37.3666C98.3179 36.2024 99.2535 34.4383 99.2535 32.7336C99.2535 31.0289 98.3179 29.5203 96.9652 29.5203C94.9153 29.5203 98.7291 32.9356 97.4062 37.3666Z" fill="white"/>
</g>
<defs>
<clipPath id="clip0_58_2527">
<rect width="139" height="39" fill="white"/>
</clipPath>
</defs>
</svg>
