<svg width="176" height="50" viewBox="0 0 176 50" fill="none" xmlns="http://www.w3.org/2000/svg">
<g clip-path="url(#clip0_58_2660)">
<path d="M28.7322 7.44751C23.8353 9.7777 18.7423 13.608 19.1422 19.5934C19.1874 21.0022 19.4289 22.5252 19.6402 24.1472C26.197 20.5834 33.6139 18.5349 40.8724 18.2913C34.2628 20.8042 27.7965 23.2638 21.6019 26.5687C21.0511 26.8581 20.5154 27.1551 19.9721 27.4521C20.4701 39.0497 10.9179 45.8575 0.452637 49.5127H48.2894V1.5459C41.559 2.9166 34.9721 4.56905 28.7322 7.44751Z" fill="#EE3564"/>
<path d="M15.5054 30.0717C11.5895 32.5161 7.85458 35.2194 4.18006 38.174C7.09251 33.6431 10.9783 29.79 15.4451 26.7135C15.43 26.5688 15.4224 26.4241 15.3998 26.2718C14.766 21.977 13.755 16.616 16.2826 12.4354C20.1835 5.71137 28.6568 2.36839 37.6054 0.776855H0V47.1293C7.68104 43.2761 14.7434 37.9608 15.5054 30.0717Z" fill="#EE3564"/>
<path d="M63.6515 24.1701H57.7285V0.929199H74.3431V4.31787C71.2873 1.69831 68.3597 1.39371 63.6515 1.39371V11.217C63.6515 12.0775 64.1797 12.3821 64.904 12.4126C66.481 12.4431 68.9483 11.217 70.397 11.2475C71.6117 11.278 72.2682 12.207 72.3059 13.3721C71.8456 12.839 70.7893 12.7781 70.4649 12.7781C68.9483 12.7781 67.8693 14.2402 66.1867 14.2097C64.9719 14.2097 64.2778 13.4482 64.0137 13.0827C63.7798 12.7172 63.6515 12.7477 63.6515 13.3492V24.1701Z" fill="#EE3564"/>
<path d="M82.7637 7.20361C86.5816 7.20361 88.9809 8.26971 89.0488 10.6913C89.1167 13.4784 86.0232 12.9453 83.1258 14.0114C80.4624 14.9709 78.6817 16.9965 79.8663 18.6566C80.2586 19.2201 80.7868 19.4561 81.3829 19.4561C82.2355 19.4561 83.156 18.9231 83.82 18.0321C85.0348 16.3721 84.9065 14.0799 87.1776 13.8515C88.8225 13.684 89.3808 14.8795 90.0071 16.8746L92.3084 24.1774H86.7475L84.9065 18.2377C84.8084 17.9407 84.7103 17.7428 84.6122 17.7428C84.5142 17.7428 84.4161 17.9407 84.3482 18.4357C84.1143 20.2938 84.4161 24.5429 79.904 24.5429C76.6143 24.5429 75.3618 22.3194 75.3618 20.3623C75.3316 17.7732 77.4971 16.3111 79.4739 15.3821C83.1937 13.6535 83.8125 11.7954 83.322 10.0059C82.8316 8.27733 81.5489 7.48537 80.3643 7.85089C78.3573 8.51339 79.2099 11.7345 80.07 12.793C79.2174 13.722 78.1611 14.1866 77.2406 14.1866C75.89 14.1866 74.7431 13.2575 74.7054 11.5289C74.6073 7.67574 80.2662 7.21123 82.7637 7.21123V7.20361Z" fill="#EE3564"/>
<path d="M99.4761 7.76723C98.4197 7.76723 97.9972 8.23174 98.0274 8.79525C98.0576 10.4249 101.543 11.5519 104.539 13.1434C108.055 15.0015 108.983 16.494 108.983 18.7861C108.953 24.4593 103.362 24.6268 101.717 24.6268C98.2613 24.6268 93.6587 23.8958 93.6587 20.2786C93.6587 17.2936 96.8201 16.692 97.1446 16.6235C98.2311 16.4255 97.3785 15.9229 96.4202 15.1614C95.0093 14.0648 94.119 12.9073 94.119 11.2777C94.119 7.82815 98.2613 7.22656 100.532 7.22656C103.46 7.22656 106.848 8.22413 108.825 10.1126L106.063 12.5342C104.486 10.2421 101.853 7.752 99.4836 7.752L99.4761 7.76723ZM98.0651 16.1361C98.3292 16.4331 98.299 16.6311 98.1934 16.7681C97.9293 17.1032 97.039 16.8976 97.0767 17.3012C97.1446 18.3977 104.282 21.9463 106.946 21.9463C107.572 21.9463 107.934 21.7483 107.934 21.3143C107.934 19.7228 103.196 18.8242 98.6612 16.3722C97.9368 15.9762 97.967 16.0371 98.0726 16.1361H98.0651Z" fill="#EE3564"/>
<path d="M111.654 0.929199H116.921V11.3541C117.479 9.03154 118.732 7.20395 120.739 7.20395C122.414 7.20395 123.9 8.52895 125.213 12.4811L129.091 24.1701H123.53L120.075 13.7452C119.516 12.0166 118.89 10.8896 118.136 10.8896C117.185 10.8896 116.921 12.5497 116.921 15.2073V24.1701H111.654V0.929199Z" fill="#EE3564"/>
<path d="M133.626 0C135.437 0 136.622 1.19555 136.622 2.98507C136.622 4.7746 135.437 6.00822 133.626 6.00822C131.815 6.00822 130.668 4.81267 130.668 2.98507C130.668 1.15748 131.853 0 133.626 0ZM130.993 7.5693H136.259V24.17H130.993V7.5693Z" fill="#EE3564"/>
<path d="M147.313 24.6345C142.311 24.6345 139.059 21.1469 139.059 15.9077C139.059 10.6686 142.318 7.21143 147.313 7.21143C152.308 7.21143 155.568 10.661 155.568 15.9077C155.568 21.1545 152.308 24.6345 147.313 24.6345ZM144.552 8.07192C142.575 8.66589 143.269 12.7856 144.619 16.7378C145.932 20.5529 147.977 24.3756 149.946 23.7436C151.855 23.1801 151.395 19.1289 150.044 15.1462C148.762 11.3921 146.589 7.47795 144.552 8.07192Z" fill="#EE3564"/>
<path d="M158.57 7.56913H163.837V11.3538C164.395 9.03121 165.648 7.20361 167.655 7.20361C169.33 7.20361 170.816 8.52862 172.129 12.4808L176.007 24.1698H170.446L166.991 13.7449C166.432 12.0163 165.806 10.8893 165.052 10.8893C164.101 10.8893 163.837 12.5493 163.837 15.207V24.1698H158.57V7.56913Z" fill="#EE3564"/>
<path d="M63.6515 49.5354H57.7285V26.2944H74.3431V29.6831C71.2873 27.0635 68.3597 26.7589 63.6515 26.7589V36.5823C63.6515 37.4428 64.1797 37.7474 64.904 37.7778C66.481 37.8083 68.9483 36.5823 70.397 36.6127C71.6117 36.6432 72.2682 37.5722 72.3059 38.7373C71.8456 38.2043 70.7893 38.1434 70.4649 38.1434C68.9483 38.1434 67.8693 39.6054 66.1867 39.575C64.9719 39.575 64.2778 38.8135 64.0137 38.448C63.7798 38.0824 63.6515 38.1129 63.6515 38.7145V49.5354Z" fill="#EE3564"/>
<path d="M76.6519 26.3022H81.9184V49.5432H76.6519V26.3022Z" fill="#EE3564"/>
<path d="M93.1607 50.0002C88.1582 50.0002 84.9062 46.5126 84.9062 41.2735C84.9062 36.0344 88.1658 32.5771 93.1607 32.5771C98.1557 32.5771 101.415 36.0267 101.415 41.2735C101.415 46.5202 98.1557 50.0002 93.1607 50.0002ZM90.3992 33.4376C88.4223 34.0316 89.1165 38.1513 90.4671 42.1035C91.78 45.9186 93.8247 49.7413 95.794 49.1093C97.703 48.5458 97.2427 44.4946 95.8921 40.512C94.6094 36.7578 92.4364 32.8437 90.3992 33.4376Z" fill="#EE3564"/>
<path d="M101.785 32.9349H107.376L112.507 47.0074L114.122 42.6288L110.606 32.9349H116.166L122.052 49.033C124.519 44.3879 120.701 39.6742 120.475 36.2551C120.346 33.9325 121.629 32.4399 123.734 32.4399C126.073 32.4399 127.778 34.3285 127.778 37.7552C127.778 42.8039 124.059 47.2815 122.353 49.5432H116.627L114.423 43.4664L113.405 46.2231C113.043 47.2206 112.914 48.1801 113.405 49.5432H107.814L101.793 32.9425L101.785 32.9349ZM122.965 47.906C124.119 46.4134 125.304 44.1518 125.304 41.9663C125.304 39.7808 124.119 37.8466 122.406 37.8466C119.811 37.8466 124.64 42.2252 122.965 47.906Z" fill="#EE3564"/>
</g>
<defs>
<clipPath id="clip0_58_2660">
<rect width="176" height="50" fill="white"/>
</clipPath>
</defs>
</svg>
