<svg width="20" height="20" viewBox="0 0 20 20" fill="none" xmlns="http://www.w3.org/2000/svg">
<path d="M15.9825 16.7249C15.2838 15.7997 14.3798 15.0495 13.3417 14.5332C12.3036 14.017 11.1599 13.7488 10.0005 13.7499C8.84115 13.7488 7.69739 14.017 6.65932 14.5332C5.62125 15.0495 4.71724 15.7997 4.0185 16.7249M15.9825 16.7249C17.346 15.512 18.3076 13.9134 18.7417 12.1409C19.1758 10.3685 19.0608 8.50595 18.412 6.80034C17.7632 5.09473 16.6112 3.62663 15.1089 2.59075C13.6066 1.55488 11.8248 1.00015 10 1.00015C8.17516 1.00015 6.39343 1.55488 4.89111 2.59075C3.38878 3.62663 2.23683 5.09473 1.58804 6.80034C0.939242 8.50595 0.824253 10.3685 1.25832 12.1409C1.69239 13.9134 2.655 15.512 4.0185 16.7249M15.9825 16.7249C14.3365 18.193 12.2061 19.003 10.0005 18.9999C7.79453 19.0032 5.66474 18.1933 4.0185 16.7249M13.0005 7.74986C13.0005 8.54551 12.6844 9.30857 12.1218 9.87118C11.5592 10.4338 10.7962 10.7499 10.0005 10.7499C9.20485 10.7499 8.44179 10.4338 7.87918 9.87118C7.31657 9.30857 7.0005 8.54551 7.0005 7.74986C7.0005 6.95421 7.31657 6.19115 7.87918 5.62854C8.44179 5.06593 9.20485 4.74986 10.0005 4.74986C10.7962 4.74986 11.5592 5.06593 12.1218 5.62854C12.6844 6.19115 13.0005 6.95421 13.0005 7.74986Z" stroke="white" stroke-width="1.5" stroke-linecap="round" stroke-linejoin="round"/>
</svg>
