<svg width="20" height="20" viewBox="0 0 20 20" fill="none" xmlns="http://www.w3.org/2000/svg">
<path d="M10.0001 15.296C12.925 15.296 15.2961 12.9249 15.2961 9.99998C15.2961 7.07508 12.925 4.70398 10.0001 4.70398C7.0752 4.70398 4.7041 7.07508 4.7041 9.99998C4.7041 12.9249 7.0752 15.296 10.0001 15.296Z" fill="white"/>
<path d="M10.8201 0.796062V2.33206C10.8201 2.77606 10.4561 3.12806 10.0121 3.12806C10.0121 3.12806 10.0081 3.12806 10.0041 3.12806C10.0001 3.12806 9.99608 3.12806 9.99208 3.12806C9.54808 3.12806 9.18408 2.77606 9.18408 2.33206V0.796062C9.18408 0.356061 9.54008 6.10352e-05 9.98008 6.10352e-05H10.0281C10.4681 6.10352e-05 10.8241 0.356061 10.8241 0.796062H10.8201Z" fill="white"/>
<path d="M4.07213 2.91207L5.16013 4.00007C5.47613 4.31607 5.46413 4.82007 5.15213 5.13607C5.15213 5.13607 5.15213 5.13607 5.14813 5.14007L5.14013 5.14807C4.82813 5.46407 4.32013 5.47207 4.00413 5.15607L2.91613 4.06807C2.60413 3.75607 2.60413 3.25207 2.91613 2.94007L2.94813 2.90807C3.26013 2.59607 3.76413 2.59607 4.07613 2.90807L4.07213 2.91207Z" fill="white"/>
<path d="M0.796001 9.18021H2.332C2.776 9.18021 3.128 9.54421 3.128 9.98821C3.128 9.98821 3.128 9.99221 3.128 9.99621C3.128 10.0002 3.128 10.0042 3.128 10.0082C3.128 10.4522 2.776 10.8162 2.332 10.8162H0.796001C0.356 10.8162 0 10.4602 0 10.0202V9.97221C0 9.53221 0.356 9.17621 0.796001 9.17621V9.18021Z" fill="white"/>
<path d="M2.91183 15.9279L3.99983 14.8399C4.31583 14.5239 4.81983 14.5359 5.13583 14.8479C5.13583 14.8479 5.13583 14.8479 5.13983 14.8519L5.14783 14.8599C5.46383 15.1719 5.47183 15.6799 5.15583 15.9959L4.06783 17.0839C3.75583 17.3959 3.25183 17.3959 2.93983 17.0839L2.90783 17.0519C2.59583 16.7399 2.59583 16.2359 2.90783 15.9239L2.91183 15.9279Z" fill="white"/>
<path d="M9.17978 19.2039V17.6679C9.17978 17.2239 9.54378 16.8719 9.98778 16.8719C9.98778 16.8719 9.99178 16.8719 9.99578 16.8719C9.99978 16.8719 10.0038 16.8719 10.0078 16.8719C10.4518 16.8719 10.8158 17.2239 10.8158 17.6679V19.2039C10.8158 19.6439 10.4598 20 10.0198 20H9.97178C9.53178 20 9.17578 19.6439 9.17578 19.2039H9.17978Z" fill="white"/>
<path d="M15.928 17.088L14.84 16C14.524 15.684 14.536 15.18 14.848 14.864C14.848 14.864 14.848 14.864 14.852 14.86L14.86 14.852C15.172 14.536 15.68 14.528 15.996 14.844L17.084 15.932C17.396 16.244 17.396 16.748 17.084 17.06L17.052 17.092C16.74 17.404 16.236 17.404 15.924 17.092L15.928 17.088Z" fill="white"/>
<path d="M19.2041 10.82H17.6681C17.2241 10.82 16.8721 10.456 16.8721 10.012C16.8721 10.012 16.8721 10.008 16.8721 10.004C16.8721 9.99996 16.8721 9.99596 16.8721 9.99196C16.8721 9.54796 17.2241 9.18396 17.6681 9.18396H19.2041C19.6441 9.18396 20.0001 9.53996 20.0001 9.97996V10.028C20.0001 10.468 19.6441 10.824 19.2041 10.824V10.82Z" fill="white"/>
<path d="M17.0879 4.07207L15.9999 5.16007C15.6839 5.47607 15.1799 5.46407 14.8639 5.15207C14.8639 5.15207 14.8639 5.15207 14.8599 5.14807L14.8519 5.14007C14.5359 4.82807 14.5279 4.32007 14.8439 4.00407L15.9319 2.91607C16.2439 2.60407 16.7479 2.60407 17.0599 2.91607L17.0919 2.94807C17.4039 3.26007 17.4039 3.76407 17.0919 4.07607L17.0879 4.07207Z" fill="white"/>
</svg>
