<svg width="21" height="20" viewBox="0 0 21 20" fill="none" xmlns="http://www.w3.org/2000/svg">
<path d="M11.9485 0.0012304C12.6782 -0.00156983 13.408 0.00576429 14.1375 0.0232305L14.3315 0.0302304C14.5555 0.0382304 14.7765 0.0482304 15.0435 0.0602304C16.1075 0.11023 16.8335 0.278231 17.4705 0.525231C18.1305 0.779231 18.6865 1.12323 19.2425 1.67923C19.7509 2.17884 20.1443 2.78318 20.3955 3.45023C20.6425 4.08723 20.8105 4.81423 20.8605 5.87823C20.8725 6.14423 20.8825 6.36623 20.8905 6.59023L20.8965 6.78423C20.9143 7.51342 20.9219 8.24283 20.9195 8.97223L20.9205 9.71823V11.0282C20.923 11.758 20.9153 12.4877 20.8975 13.2172L20.8915 13.4112C20.8835 13.6352 20.8735 13.8562 20.8615 14.1232C20.8115 15.1872 20.6415 15.9132 20.3955 16.5502C20.1451 17.218 19.7516 17.8228 19.2425 18.3222C18.7425 18.8306 18.1378 19.224 17.4705 19.4752C16.8335 19.7222 16.1075 19.8902 15.0435 19.9402C14.7765 19.9522 14.5555 19.9622 14.3315 19.9702L14.1375 19.9762C13.408 19.994 12.6782 20.0017 11.9485 19.9992L11.2025 20.0002H9.8935C9.16376 20.0027 8.43402 19.995 7.7045 19.9772L7.5105 19.9712C7.27311 19.9626 7.03577 19.9526 6.7985 19.9412C5.7345 19.8912 5.0085 19.7212 4.3705 19.4752C3.70318 19.2246 3.09874 18.8311 2.5995 18.3222C2.09054 17.8225 1.69672 17.2178 1.4455 16.5502C1.1985 15.9132 1.0305 15.1872 0.980499 14.1232C0.969362 13.8859 0.959362 13.6486 0.950499 13.4112L0.945499 13.2172C0.927063 12.4877 0.918728 11.758 0.920499 11.0282V8.97223C0.917708 8.24283 0.925042 7.51343 0.942499 6.78423L0.949499 6.59023C0.957499 6.36623 0.967499 6.14423 0.979499 5.87823C1.0295 4.81323 1.1975 4.08823 1.4445 3.45023C1.69587 2.78285 2.09046 2.17868 2.6005 1.68023C3.09939 1.17098 3.70346 0.776803 4.3705 0.525231C5.0085 0.278231 5.7335 0.11023 6.7985 0.0602304L7.5105 0.0302304L7.7045 0.0252306C8.43368 0.00680338 9.16308 -0.00153085 9.8925 0.000230468L11.9485 0.0012304ZM10.9205 5.00123C10.258 4.99186 9.60026 5.11425 8.98548 5.3613C8.3707 5.60834 7.81115 5.97511 7.33934 6.44029C6.86754 6.90546 6.4929 7.45977 6.23719 8.07099C5.98147 8.68222 5.84979 9.33817 5.84979 10.0007C5.84979 10.6633 5.98147 11.3192 6.23719 11.9305C6.4929 12.5417 6.86754 13.096 7.33934 13.5612C7.81115 14.0264 8.3707 14.3931 8.98548 14.6402C9.60026 14.8872 10.258 15.0096 10.9205 15.0002C12.2466 15.0002 13.5184 14.4734 14.456 13.5358C15.3937 12.5981 15.9205 11.3263 15.9205 10.0002C15.9205 8.67415 15.3937 7.40238 14.456 6.4647C13.5184 5.52701 12.2466 5.00123 10.9205 5.00123ZM10.9205 7.00123C11.319 6.99389 11.715 7.06603 12.0853 7.21344C12.4556 7.36085 12.7928 7.58057 13.0773 7.85978C13.3617 8.13898 13.5877 8.47206 13.7419 8.83957C13.8962 9.20708 13.9757 9.60165 13.9758 10.0002C13.9758 10.3988 13.8965 10.7934 13.7423 11.1609C13.5882 11.5285 13.3623 11.8617 13.078 12.141C12.7936 12.4203 12.4565 12.6401 12.0862 12.7876C11.716 12.9352 11.32 13.0074 10.9215 13.0002C10.1258 13.0002 9.36279 12.6842 8.80018 12.1216C8.23757 11.5589 7.9215 10.7959 7.9215 10.0002C7.9215 9.20458 8.23757 8.44152 8.80018 7.87891C9.36279 7.3163 10.1258 7.00023 10.9215 7.00023L10.9205 7.00123ZM16.1705 3.50123C15.8479 3.51414 15.5428 3.65138 15.3191 3.8842C15.0954 4.11702 14.9705 4.42736 14.9705 4.75023C14.9705 5.0731 15.0954 5.38344 15.3191 5.61626C15.5428 5.84908 15.8479 5.98632 16.1705 5.99923C16.502 5.99923 16.82 5.86753 17.0544 5.63311C17.2888 5.39869 17.4205 5.08075 17.4205 4.74923C17.4205 4.41771 17.2888 4.09977 17.0544 3.86535C16.82 3.63093 16.502 3.49923 16.1705 3.49923V3.50123Z" fill="#F53163"/>
</svg>
