<svg width="19" height="18" viewBox="0 0 19 18" fill="none" xmlns="http://www.w3.org/2000/svg">
<path d="M16.9209 0.000488281C17.4513 0.000488281 17.96 0.211202 18.3351 0.586275C18.7102 0.961347 18.9209 1.47006 18.9209 2.00049V16.0005C18.9209 16.5309 18.7102 17.0396 18.3351 17.4147C17.96 17.7898 17.4513 18.0005 16.9209 18.0005H2.9209C2.39047 18.0005 1.88176 17.7898 1.50668 17.4147C1.13161 17.0396 0.920898 16.5309 0.920898 16.0005V2.00049C0.920898 1.47006 1.13161 0.961347 1.50668 0.586275C1.88176 0.211202 2.39047 0.000488281 2.9209 0.000488281L16.9209 0.000488281ZM16.4209 15.5005V10.2005C16.4209 9.33588 16.0774 8.50669 15.4661 7.89532C14.8547 7.28395 14.0255 6.94049 13.1609 6.94049C12.3109 6.94049 11.3209 7.46049 10.8409 8.24049V7.13049H8.0509V15.5005H10.8409V10.5705C10.8409 9.80049 11.4609 9.17049 12.2309 9.17049C12.6022 9.17049 12.9583 9.31799 13.2208 9.58054C13.4834 9.84309 13.6309 10.1992 13.6309 10.5705V15.5005H16.4209ZM4.8009 5.56049C5.24646 5.56049 5.67378 5.38349 5.98884 5.06843C6.3039 4.75337 6.4809 4.32605 6.4809 3.88049C6.4809 2.95049 5.7309 2.19049 4.8009 2.19049C4.35268 2.19049 3.92282 2.36854 3.60589 2.68548C3.28895 3.00241 3.1109 3.43227 3.1109 3.88049C3.1109 4.81049 3.8709 5.56049 4.8009 5.56049ZM6.1909 15.5005V7.13049H3.4209V15.5005H6.1909Z" fill="#F53163"/>
</svg>
