<svg width="21" height="20" viewBox="0 0 21 20" fill="none" xmlns="http://www.w3.org/2000/svg">
<path d="M7.9609 19.5405C8.9209 19.8305 9.8909 20.0005 10.9209 20.0005C13.5731 20.0005 16.1166 18.9469 17.992 17.0716C19.8673 15.1962 20.9209 12.6527 20.9209 10.0005C20.9209 8.68727 20.6622 7.38691 20.1597 6.17365C19.6571 4.9604 18.9206 3.85801 17.992 2.92942C17.0634 2.00083 15.961 1.26424 14.7477 0.761693C13.5345 0.259146 12.2341 0.000488281 10.9209 0.000488281C9.60768 0.000488281 8.30732 0.259146 7.09406 0.761693C5.88081 1.26424 4.77842 2.00083 3.84983 2.92942C1.97447 4.80478 0.920898 7.34832 0.920898 10.0005C0.920898 14.2505 3.5909 17.9005 7.3609 19.3405C7.2709 18.5605 7.1809 17.2705 7.3609 16.3805L8.5109 11.4405C8.5109 11.4405 8.2209 10.8605 8.2209 9.94049C8.2209 8.56049 9.0809 7.53049 10.0609 7.53049C10.9209 7.53049 11.3209 8.16049 11.3209 8.97049C11.3209 9.83049 10.7509 11.0605 10.4609 12.2405C10.2909 13.2205 10.9809 14.0805 11.9809 14.0805C13.7609 14.0805 15.1409 12.1805 15.1409 9.50049C15.1409 7.10049 13.4209 5.46049 10.9509 5.46049C8.1309 5.46049 6.4709 7.56049 6.4709 9.77049C6.4709 10.6305 6.7509 11.5005 7.2109 12.0705C7.3009 12.1305 7.3009 12.2105 7.2709 12.3605L6.9809 13.4505C6.9809 13.6205 6.8709 13.6805 6.7009 13.5605C5.4209 13.0005 4.6809 11.1805 4.6809 9.71049C4.6809 6.55049 6.9209 3.68049 11.2409 3.68049C14.6809 3.68049 17.3609 6.15049 17.3609 9.43049C17.3609 12.8705 15.2309 15.6305 12.1809 15.6305C11.2109 15.6305 10.2609 15.1105 9.9209 14.5005L9.2509 16.8705C9.0209 17.7305 8.3909 18.8805 7.9609 19.5705V19.5405Z" fill="#F53163"/>
</svg>
