<svg width="21" height="18" viewBox="0 0 21 18" fill="none" xmlns="http://www.w3.org/2000/svg">
<path d="M20.92 2.50049C20.15 2.85049 19.32 3.08049 18.46 3.19049C19.34 2.66049 20.02 1.82049 20.34 0.810488C19.51 1.31049 18.59 1.66049 17.62 1.86049C16.83 1.00049 15.72 0.500488 14.46 0.500488C12.11 0.500488 10.19 2.42049 10.19 4.79049C10.19 5.13049 10.23 5.46049 10.3 5.77049C6.74 5.59049 3.57 3.88049 1.46 1.29049C1.09 1.92049 0.88 2.66049 0.88 3.44049C0.88 4.93049 1.63 6.25049 2.79 7.00049C2.08 7.00049 1.42 6.80049 0.84 6.50049V6.53049C0.84 8.61049 2.32 10.3505 4.28 10.7405C3.65073 10.9127 2.9901 10.9367 2.35 10.8105C2.62161 11.663 3.15354 12.4089 3.87102 12.9434C4.5885 13.4779 5.45545 13.7742 6.35 13.7905C4.83363 14.9909 2.954 15.6398 1.02 15.6305C0.68 15.6305 0.34 15.6105 0 15.5705C1.9 16.7905 4.16 17.5005 6.58 17.5005C14.46 17.5005 18.79 10.9605 18.79 5.29049C18.79 5.10049 18.79 4.92049 18.78 4.73049C19.62 4.13049 20.34 3.37049 20.92 2.50049Z" fill="#F53163"/>
</svg>
